<?xml version="1.0" encoding="utf-8"?>
<!-- Generator: Adobe Illustrator 15.0.0, SVG Export Plug-In  -->
<!DOCTYPE svg PUBLIC "-//W3C//DTD SVG 1.1//EN" "http://www.w3.org/Graphics/SVG/1.1/DTD/svg11.dtd" [
	<!ENTITY ns_flows "http://ns.adobe.com/Flows/1.0/">
]>
<svg version="1.1"
	 xmlns="http://www.w3.org/2000/svg" xmlns:xlink="http://www.w3.org/1999/xlink" xmlns:a="http://ns.adobe.com/AdobeSVGViewerExtensions/3.0/"
	 x="0px" y="0px" width="68px" height="72px" viewBox="236.281 71.685 68 72"
	 overflow="visible" enable-background="new 236.281 71.685 68 72" xml:space="preserve">
<defs>
</defs>
<line fill="none" stroke="#3D4C53" stroke-width="2" stroke-miterlimit="10" x1="101.281" y1="0.685" x2="371.281" y2="288.685"/>
<line fill="none" stroke="#3D4C53" stroke-width="2" stroke-miterlimit="10" x1="167.781" y1="289.685" x2="404.938" y2="36.585"/>
<line fill="none" stroke="#3D4C53" stroke-width="2" stroke-miterlimit="10" x1="236.281" y1="288.685" x2="438.781" y2="72.685"/>
<line fill="none" stroke="#3D4C53" stroke-width="2" stroke-miterlimit="10" x1="236.281" y1="0.685" x2="438.781" y2="216.685"/>
<line fill="none" stroke="#3D4C53" stroke-width="2" stroke-miterlimit="10" x1="304.281" y1="288.685" x2="472.531" y2="108.685"/>
<line fill="none" stroke="#3D4C53" stroke-width="2" stroke-miterlimit="10" x1="371.281" y1="0.685" x2="101.281" y2="288.685"/>
<line fill="none" stroke="#3D4C53" stroke-width="2" stroke-miterlimit="10" x1="236.281" y1="0.685" x2="33.781" y2="216.685"/>
<line fill="none" stroke="#3D4C53" stroke-width="2" stroke-miterlimit="10" x1="303.281" y1="0.685" x2="67.531" y2="252.685"/>
<line fill="none" stroke="#3D4C53" stroke-width="2" stroke-miterlimit="10" x1="33.984" y1="72.402" x2="236.281" y2="288.685"/>
<line fill="none" stroke="#3D4C53" stroke-width="2" stroke-miterlimit="10" x1="304.281" y1="288.685" x2="67.531" y2="36.585"/>
<line fill="none" stroke="#3D4C53" stroke-width="2" stroke-miterlimit="10" x1="168.781" y1="0.685" x2="405.031" y2="252.685"/>
<line fill="none" stroke="#3D4C53" stroke-width="2" stroke-miterlimit="10" x1="303.281" y1="0.685" x2="472.531" y2="180.685"/>
<line fill="none" stroke="#3D4C53" stroke-width="2" stroke-miterlimit="10" x1="0" y1="108.685" x2="472.531" y2="108.685"/>
<line fill="none" stroke="#3D4C53" stroke-width="2" stroke-miterlimit="10" x1="438.781" y1="72.685" x2="33.984" y2="72.402"/>
<rect id="_x3C_Slice_x3E__1_" x="236.281" y="71.685" fill="none" width="68" height="72"/>
</svg>
