<!DOCTYPE svg PUBLIC "-//W3C//DTD SVG 1.1//EN" "http://www.w3.org/Graphics/SVG/1.1/DTD/svg11.dtd" [
	<!ENTITY ns_flows "http://ns.adobe.com/Flows/1.0/">
]><svg xmlns="http://www.w3.org/2000/svg" width="677" height="387" viewBox="19.1 13.9 677 387" overflow="visible" enable-background="new 19.1 13.9 677 387"><path fill="#E54A45" d="M220.9 350.9h271.8l33.8-35.9 33.7-35.9 33.8-35.9 33.7-35.8-33.7-35.9-33.8-35.9-33.7-35.9-33.8-35.8H222.6l-33.7 35.8-33.7 35.9-33.7 35.9-33.8 35.9 33.8 35.8 33.7 35.9L189 315l33.7 35.9h-1.4zm293.5 50H201.1l-45.5-48.4-45.5-48.4-45.5-48.4-45.5-48.3L64.6 159l45.5-48.4 45.4-48.4L201 13.9h313.4l45.5 48.3 45.5 48.4 45.5 48.4 45.5 48.4-45.5 48.3-45.5 48.4-45.5 48.4zm-270-100h226.7l22-23.4 22-23.4 22-23.4 22-23.3-22-23.4-22-23.4-22-23.4-22-23.3H244.2l-21.9 23.3-22 23.4-22 23.4-21.9 23.3 22 23.4 22 23.4 22 23.4z"/><path fill="#fff" d="M392.2 244.1l-8.6-9.2-8.6-9.2-8.6-9.2-8.7-9.1 33.8-36 33.7-36 33.8-36 33.7-36h-67.5l-33.7 36-33.8 36-33.7 36-33.8 36 33.8 36 33.7 36 33.8 36 33.7 36h67.5l-16.8-18-16.9-18-16.9-18-16.9-18 16.9-18 16.9-18 16.9-18 16.8-18-8.5-9.2-8.6-9.1-8.5-9.1-8.6-9.2-17.1 18.4-17 18.3-17.1 18.3-17.1 18.3h1.5zm-33 107.3h-69.3l-33.8-36-33.9-36-33.9-36-33.9-36 33.7-36 33.6-36 33.6-36 33.6-36h70.3l-34.4 36-34.3 36-34.4 36-34.4 36 34.4 36 34.4 36 34.3 36z"/></svg>